<svg width="36" height="36" viewBox="0 0 36 36" fill="none" xmlns="http://www.w3.org/2000/svg">
<path d="M36 31C36 33.762 33.762 36 31 36H5C2.238 36 0 33.762 0 31V5C0 2.238 2.238 0 5 0H31C33.762 0 36 2.238 36 5V31Z" fill="#333333"/>
<path d="M36 31C36 33.762 33.762 36 31 36H5C2.238 36 0 33.762 0 31V5C0 2.238 2.238 0 5 0H31C33.762 0 36 2.238 36 5V31Z" fill="url(#paint0_linear)"/>
<path d="M25.1428 17.9784V21.6931H13.509C12.4833 21.6931 11.6519 20.8613 11.6519 19.8355C11.6519 19.7374 11.6595 19.6412 11.674 19.547C11.8129 18.6585 12.5815 17.9784 13.509 17.9784H25.1428Z" fill="#AA5E33"/>
<path d="M23.773 17.9784C23.5191 18.3329 23.2358 18.6701 22.9239 18.9864C21.3827 20.5502 19.3255 21.4303 17.132 21.4645C17.0873 21.4653 17.0434 21.4657 16.9988 21.4657H16.9984C15.0269 21.4653 13.163 20.7893 11.674 19.547C11.8129 18.6585 12.5815 17.9784 13.509 17.9784H23.773Z" fill="#9D552E"/>
<path d="M25.1427 21.693C26.1685 21.693 27 20.8614 27 19.8357C27 18.81 26.1685 17.9785 25.1427 17.9785C24.117 17.9785 23.2855 18.81 23.2855 19.8357C23.2855 20.8614 24.117 21.693 25.1427 21.693Z" fill="#E6AC8E"/>
<path d="M27 19.8355C27 20.8614 26.1684 21.693 25.1429 21.693C24.9361 21.693 24.7372 21.6592 24.5515 21.5967C25.2876 21.3497 25.8176 20.6546 25.8176 19.8355C25.8176 19.0168 25.2876 18.3217 24.5515 18.0746C24.7372 18.0122 24.9361 17.9784 25.1429 17.9784C26.1684 17.9785 27 18.8101 27 19.8355V19.8355Z" fill="#E09977"/>
<path d="M25.1427 21.0361C24.4809 21.0361 23.9424 20.4976 23.9424 19.8357C23.9424 19.1739 24.4808 18.6354 25.1427 18.6354C25.3094 18.6354 25.4446 18.7705 25.4446 18.9372C25.4446 19.1039 25.3094 19.239 25.1427 19.239C24.8137 19.239 24.546 19.5067 24.546 19.8358C24.546 20.1648 24.8137 20.4325 25.1427 20.4325C25.4718 20.4325 25.7395 20.1648 25.7395 19.8358C25.7395 19.6691 25.8746 19.534 26.0413 19.534C26.208 19.534 26.3431 19.6691 26.3431 19.8358C26.3431 20.4976 25.8047 21.0361 25.1427 21.0361V21.0361Z" fill="#D68F72"/>
<path d="M24.4495 12.1769C24.4083 11.8584 24.0311 11.7107 23.7864 11.9187C23.5273 12.139 23.2529 12.3419 22.9652 12.5258C22.8228 12.6169 22.639 12.5047 22.6556 12.3364C23.1712 7.08557 19.2579 3.01553 15.8615 3.00001C14.4884 2.99373 17.6356 6.32036 14.0505 9.72279C13.714 10.0421 13.4219 10.3454 13.168 10.633C13.0835 10.7287 12.9313 10.7222 12.856 10.6191C12.4106 10.0097 12.0547 9.33093 11.8078 8.60172C11.7057 8.30004 11.3096 8.23516 11.1116 8.48467C10.0941 9.76711 9.48713 11.3894 9.48811 13.1537C9.49049 17.3627 12.911 20.7255 17.1194 20.6599C21.2128 20.5961 24.5119 17.258 24.5119 13.1493C24.5119 12.8198 24.4906 12.4952 24.4495 12.1769V12.1769Z" fill="#FB6A3B"/>
<path d="M24.5118 13.1494C24.5118 17.2581 21.2129 20.5961 17.1195 20.6601C16.7457 20.6657 16.3783 20.6448 16.0189 20.5981C19.7058 20.1189 22.5533 16.9668 22.5533 13.1494C22.5533 12.8183 22.532 12.4923 22.4905 12.1728C22.4491 11.854 22.0728 11.7108 21.8278 11.9188C21.6807 12.0438 21.5288 12.1633 21.3723 12.2768C21.0953 12.4778 20.7104 12.2627 20.7291 11.921C20.9615 7.67336 18.3115 4.26889 15.4958 3.28666C15.5191 3.10035 15.6209 2.99893 15.8616 3.00013C19.2578 3.01543 23.1712 7.0854 22.6555 12.3365C22.6391 12.5033 22.8214 12.6178 22.9627 12.5275C23.2513 12.3432 23.5265 12.1397 23.7863 11.9189C24.031 11.7108 24.4077 11.8541 24.4491 12.1728C24.4905 12.4923 24.5118 12.8183 24.5118 13.1494V13.1494Z" fill="#FB5532"/>
<path d="M21.934 15.0417C21.9069 14.8319 21.6574 14.7325 21.4962 14.8695C21.3609 14.9847 21.2192 15.0927 21.0719 15.193C20.9333 15.2874 20.7448 15.1801 20.7576 15.0128C21.0203 11.6003 18.4663 8.97372 16.2459 8.96357C15.3364 8.95941 17.4209 11.1627 15.0464 13.4162C14.8478 13.6048 14.6725 13.7848 14.5176 13.9566C14.4307 14.0531 14.2775 14.043 14.2028 13.9367C13.9323 13.5522 13.7147 13.1277 13.5611 12.6737C13.4938 12.4748 13.2346 12.4269 13.1039 12.5912C12.436 13.4307 12.0341 14.4909 12.0248 15.6447C12.0031 18.3319 14.2392 20.6213 16.9262 20.6602C19.7077 20.7005 21.9753 18.4579 21.9753 15.6857C21.9753 15.4675 21.9612 15.2525 21.934 15.0417V15.0417Z" fill="#FCC16D"/>
<path d="M21.9754 15.6858C21.9754 18.4069 19.7903 20.6178 17.0792 20.6601C16.798 20.6645 16.5223 20.6456 16.2535 20.6057C18.6503 20.2484 20.4885 18.1816 20.4885 15.6858C20.4885 15.4665 20.474 15.2508 20.4467 15.0387C20.4193 14.8278 20.1698 14.7329 20.0076 14.8705C19.8726 14.9855 19.7314 15.0932 19.5845 15.1932C19.4454 15.2879 19.2578 15.1796 19.2707 15.0118C19.4845 12.2281 17.8245 9.96771 16 9.22386C15.998 9.05566 16.0583 8.9627 16.2458 8.96351C18.4664 8.97358 21.0202 11.6003 20.7575 15.0127C20.7446 15.18 20.9332 15.2873 21.0719 15.1929C21.2187 15.093 21.3598 14.9854 21.4949 14.8705C21.6567 14.7329 21.9062 14.8279 21.9335 15.0387C21.961 15.2508 21.9754 15.4665 21.9754 15.6858V15.6858Z" fill="#FCB44D"/>
<path d="M19.0018 18.4663C19.6019 16.0788 18.8609 14.3681 18.2948 13.4879C18.118 13.2131 17.7076 13.2496 17.5828 13.5516C17.3329 14.1562 16.7429 15.0323 15.3501 15.7989C13.7504 16.6793 13.774 17.8946 13.8941 18.4663H19.0018Z" fill="#FFEED3"/>
<path d="M19.002 18.4665H17.5859C18.0579 16.5889 17.7002 15.1297 17.2502 14.1639C17.4007 13.9422 17.5074 13.7345 17.5826 13.5514C17.7074 13.2496 18.1178 13.213 18.2949 13.4878C18.8607 14.3684 19.602 16.0791 19.002 18.4665V18.4665Z" fill="#FDDAA9"/>
<path d="M8.85726 21.6939C7.83151 21.6939 7 20.8624 7 19.8366C7 18.8109 7.83151 17.9794 8.85726 17.9794H19.4138V21.6939H8.85726Z" fill="#C76D3D"/>
<path d="M16.1604 20.994C15.9937 20.994 15.8586 20.8589 15.8586 20.6922C15.8586 20.5255 15.9937 20.3903 16.1604 20.3903C17.1018 20.3903 17.6287 19.9352 17.6337 19.9306C17.7571 19.8185 17.948 19.8275 18.0601 19.9509C18.1723 20.0742 18.1632 20.2651 18.0399 20.3772C18.0122 20.4024 17.3479 20.994 16.1604 20.994V20.994Z" fill="#AA5E33"/>
<path d="M19.4138 21.693C20.4395 21.693 21.2711 20.8614 21.2711 19.8357C21.2711 18.81 20.4395 17.9785 19.4138 17.9785C18.3881 17.9785 17.5565 18.81 17.5565 19.8357C17.5565 20.8614 18.3881 21.693 19.4138 21.693Z" fill="#EBBBA5"/>
<path d="M21.2711 19.8355C21.2711 20.8614 20.4395 21.693 19.4136 21.693C19.2072 21.693 19.0083 21.6592 18.8226 21.5967C19.5587 21.3497 20.0887 20.6546 20.0887 19.8355C20.0887 19.0168 19.5587 18.3217 18.8226 18.0746C19.0083 18.0122 19.2072 17.9784 19.4136 17.9784C20.4395 17.9785 21.2711 18.8101 21.2711 19.8355V19.8355Z" fill="#E6AC8E"/>
<path d="M19.4137 21.0361C18.7519 21.0361 18.2134 20.4976 18.2134 19.8357C18.2134 19.1739 18.7518 18.6354 19.4137 18.6354C19.5805 18.6354 19.7156 18.7705 19.7156 18.9372C19.7156 19.1039 19.5805 19.239 19.4137 19.239C19.0847 19.239 18.817 19.5067 18.817 19.8358C18.817 20.1648 19.0847 20.4325 19.4137 20.4325C19.7428 20.4325 20.0105 20.1648 20.0105 19.8358C20.0105 19.6691 20.1457 19.534 20.3124 19.534C20.4791 19.534 20.6142 19.6691 20.6142 19.8358C20.6142 20.4976 20.0757 21.0361 19.4137 21.0361V21.0361Z" fill="#E09977"/>
<path d="M13.9827 19.9091C13.957 19.9204 13.5747 20.0789 12.7952 20.0789C12.274 20.0789 11.575 20.0081 10.6861 19.7743C8.45273 19.1875 7.34326 19.4077 7.03059 19.4998C7.07484 19.2564 7.16659 19.0294 7.2962 18.8294C7.92355 18.7388 9.05799 18.7227 10.8398 19.1908C12.8258 19.7123 13.7352 19.3586 13.7437 19.3549C13.897 19.2889 14.0744 19.3594 14.1404 19.5123C14.2064 19.6656 14.136 19.8431 13.9827 19.9091V19.9091Z" fill="#AA5E33"/>
<path d="M16.4165 19.5538C16.416 19.5538 16.4154 19.5538 16.4148 19.5538C16.2481 19.5529 16.1121 19.4169 16.113 19.2503C16.114 19.0842 16.2473 18.9502 16.4131 18.9502H16.4149L16.4183 18.9502C16.585 18.9512 16.7194 19.0871 16.7184 19.2538C16.7173 19.4199 16.5824 19.5538 16.4165 19.5538V19.5538Z" fill="#AA5E33"/>
<path d="M12.8768 21.693H11.9328C10.6048 20.8154 8.57869 20.7583 8.55532 20.7579C8.38873 20.7542 8.25674 20.6158 8.26036 20.4496C8.26397 20.285 8.39836 20.1542 8.56178 20.1542H8.56861C8.6877 20.157 11.4724 20.2335 12.8768 21.693Z" fill="#AA5E33"/>
<path d="M23.9277 8.66179C23.8166 8.66179 23.7265 8.57172 23.7265 8.46058V7.73068C23.7265 7.067 24.2645 6.52899 24.9282 6.52899C25.0394 6.52899 25.1294 6.61906 25.1294 6.7302V7.4601C25.1294 8.12378 24.5914 8.66179 23.9277 8.66179Z" fill="#FB6A3B"/>
<path d="M12.9422 5.86898C13.0533 5.86898 13.1434 5.77891 13.1434 5.66777V4.93783C13.1434 4.27415 12.6054 3.73615 11.9417 3.73615C11.8306 3.73615 11.7405 3.82621 11.7405 3.93735V4.66726C11.7405 5.33097 12.2785 5.86898 12.9422 5.86898V5.86898Z" fill="#FB6A3B"/>
<path d="M6.00806 30.517H28.8407L29.5321 29.8255V19.0081C29.5321 18.1572 28.6414 18 28.0847 18H6.00806C5.45132 18 5 18.4514 5 19.0081V29.0694C5 29.6262 5.1103 30.517 6.00806 30.517V30.517Z" fill="#A6AEC4"/>
<path d="M28.9919 18H28.0846C28.6414 18 29.0927 18.4513 29.0927 19.0081V29.8255C29.0927 29.9646 28.9798 30.0775 28.8407 30.0775H6.00806C5.45132 30.0775 5 29.6262 5 29.0694V29.9767C5 30.5334 5.45132 30.9848 6.00806 30.9848H28.9919C29.5358 30.9917 30.0059 30.5286 29.9999 29.9767V19.0081C29.9999 18.4513 29.5486 18 28.9919 18V18Z" fill="#959DB0"/>
<path d="M21.146 20.5945H20.268C20.1288 20.5945 20.016 20.7073 20.016 20.8465V21.7244C20.016 21.8636 20.1289 21.9764 20.268 21.9764H21.146C21.2851 21.9764 21.398 21.8636 21.398 21.7244V20.8465C21.398 20.7073 21.2852 20.5945 21.146 20.5945Z" fill="#ECEAEC"/>
<path d="M18.13 26.2524H19.008C19.1471 26.2524 19.26 26.1396 19.26 26.0004V25.1225C19.26 24.9833 19.1471 24.8705 19.008 24.8705H18.13C17.9909 24.8705 17.878 24.9833 17.878 25.1225V26.0004C17.878 26.1396 17.9909 26.2524 18.13 26.2524Z" fill="#ECEAEC"/>
<path d="M20.2681 26.2524H21.146C21.2851 26.2524 21.398 26.1396 21.398 26.0004V25.1225C21.398 24.9833 21.2851 24.8705 21.146 24.8705H20.2681C20.1288 24.8705 20.0161 24.9833 20.0161 25.1225V26.0004C20.016 26.1396 20.1288 26.2524 20.2681 26.2524Z" fill="#ECEAEC"/>
<path d="M19.008 22.7324H18.13C17.9909 22.7324 17.878 22.8453 17.878 22.9844V23.8624C17.878 24.0015 17.9909 24.1144 18.13 24.1144H19.008C19.1471 24.1144 19.26 24.0015 19.26 23.8624V22.9844C19.26 22.8452 19.1472 22.7324 19.008 22.7324Z" fill="#ECEAEC"/>
<path d="M16.87 20.5945H15.992C15.8528 20.5945 15.74 20.7073 15.74 20.8465V21.7244C15.74 21.8636 15.8529 21.9764 15.992 21.9764H16.87C17.0092 21.9764 17.122 21.8636 17.122 21.7244V20.8465C17.122 20.7073 17.0091 20.5945 16.87 20.5945Z" fill="#ECEAEC"/>
<path d="M16.87 22.7324H15.992C15.8528 22.7324 15.74 22.8453 15.74 22.9844V23.8624C15.74 24.0015 15.8529 24.1144 15.992 24.1144H16.87C17.0092 24.1144 17.122 24.0015 17.122 23.8624V22.9844C17.122 22.8452 17.0091 22.7324 16.87 22.7324Z" fill="#ECEAEC"/>
<path d="M15.992 26.2524H16.87C17.0092 26.2524 17.122 26.1396 17.122 26.0004V25.1225C17.122 24.9833 17.0091 24.8705 16.87 24.8705H15.992C15.8528 24.8705 15.74 24.9833 15.74 25.1225V26.0004C15.74 26.1396 15.8528 26.2524 15.992 26.2524Z" fill="#ECEAEC"/>
<path d="M24.5441 28.3904H25.422C25.5611 28.3904 25.674 28.2776 25.674 28.1384V27.2605C25.674 27.1213 25.5611 27.0085 25.422 27.0085H24.5441C24.4049 27.0085 24.2921 27.1213 24.2921 27.2605V28.1384C24.2921 28.2776 24.4049 28.3904 24.5441 28.3904Z" fill="#ECEAEC"/>
<path d="M10.456 20.5945H9.57804C9.43883 20.5945 9.32603 20.7073 9.32603 20.8465V21.7244C9.32603 21.8636 9.43888 21.9764 9.57804 21.9764H10.456C10.5952 21.9764 10.708 21.8636 10.708 21.7244V20.8465C10.708 20.7073 10.5952 20.5945 10.456 20.5945Z" fill="#ECEAEC"/>
<path d="M14.7319 22.7324H13.854C13.7148 22.7324 13.602 22.8453 13.602 22.9844V23.8624C13.602 24.0015 13.7148 24.1144 13.854 24.1144H14.7319C14.8711 24.1144 14.9839 24.0015 14.9839 23.8624V22.9844C14.984 22.8452 14.8711 22.7324 14.7319 22.7324Z" fill="#ECEAEC"/>
<path d="M24.5441 24.1144H27.5603C27.6994 24.1144 27.8123 24.0015 27.8123 23.8624V22.9844C27.8123 22.8453 27.6994 22.7324 27.5603 22.7324H24.5441C24.4049 22.7324 24.2921 22.8453 24.2921 22.9844V23.8624C24.2921 24.0015 24.4049 24.1144 24.5441 24.1144Z" fill="#ECEAEC"/>
<path d="M23.284 20.5945H22.4061C22.2669 20.5945 22.1541 20.7073 22.1541 20.8465V21.7244C22.1541 21.8636 22.2669 21.9764 22.4061 21.9764H23.284C23.4231 21.9764 23.536 21.8636 23.536 21.7244V20.8465C23.536 20.7073 23.4231 20.5945 23.284 20.5945Z" fill="#ECEAEC"/>
<path d="M22.4061 24.1144H23.284C23.4231 24.1144 23.536 24.0015 23.536 23.8624V22.9844C23.536 22.8453 23.4231 22.7324 23.284 22.7324H22.4061C22.2669 22.7324 22.1541 22.8453 22.1541 22.9844V23.8624C22.1541 24.0015 22.2668 24.1144 22.4061 24.1144Z" fill="#ECEAEC"/>
<path d="M24.2921 20.8465V21.7244C24.2921 21.8636 24.4049 21.9764 24.5441 21.9764H25.422C25.5611 21.9764 25.674 21.8636 25.674 21.7244V20.8465C25.674 20.7073 25.5611 20.5945 25.422 20.5945H24.5441C24.4049 20.5945 24.2921 20.7073 24.2921 20.8465Z" fill="#ECEAEC"/>
<path d="M21.146 22.7324H20.268C20.1288 22.7324 20.016 22.8453 20.016 22.9844V23.8624C20.016 24.0015 20.1289 24.1144 20.268 24.1144H21.146C21.2851 24.1144 21.398 24.0015 21.398 23.8624V22.9844C21.398 22.8452 21.2852 22.7324 21.146 22.7324Z" fill="#ECEAEC"/>
<path d="M19.008 20.5945H18.13C17.9909 20.5945 17.878 20.7073 17.878 20.8465V21.7244C17.878 21.8636 17.9909 21.9764 18.13 21.9764H19.008C19.1471 21.9764 19.26 21.8636 19.26 21.7244V20.8465C19.26 20.7073 19.1472 20.5945 19.008 20.5945Z" fill="#ECEAEC"/>
<path d="M27.5603 24.8705H22.4061C22.2669 24.8705 22.1541 24.9833 22.1541 25.1225V26.0004C22.1541 26.1396 22.2669 26.2524 22.4061 26.2524H27.5603C27.6995 26.2524 27.8123 26.1396 27.8123 26.0004V25.1225C27.8123 24.9833 27.6995 24.8705 27.5603 24.8705Z" fill="#ECEAEC"/>
<path d="M26.682 21.9764H27.5602C27.6994 21.9764 27.8122 21.8636 27.8122 21.7244V20.8465C27.8122 20.7073 27.6994 20.5945 27.5602 20.5945H26.682C26.5429 20.5945 26.43 20.7073 26.43 20.8465V21.7244C26.43 21.8636 26.5429 21.9764 26.682 21.9764Z" fill="#ECEAEC"/>
<path d="M13.8541 26.2524H14.732C14.8712 26.2524 14.984 26.1396 14.984 26.0004V25.1225C14.984 24.9833 14.8712 24.8705 14.732 24.8705H13.8541C13.7149 24.8705 13.6021 24.9833 13.6021 25.1225V26.0004C13.602 26.1396 13.7149 26.2524 13.8541 26.2524Z" fill="#ECEAEC"/>
<path d="M8.56997 21.7244V20.8465C8.56997 20.7073 8.45713 20.5945 8.31797 20.5945H7.43975C7.30059 20.5945 7.18774 20.7073 7.18774 20.8465V21.7244C7.18774 21.8636 7.30059 21.9764 7.43975 21.9764H8.31797C8.45718 21.9764 8.56997 21.8636 8.56997 21.7244Z" fill="#ECEAEC"/>
<path d="M26.43 27.2605V28.1384C26.43 28.2776 26.5429 28.3904 26.682 28.3904H27.5602C27.6994 28.3904 27.8122 28.2776 27.8122 28.1384V27.2605C27.8122 27.1213 27.6994 27.0085 27.5602 27.0085H26.682C26.5429 27.0084 26.43 27.1213 26.43 27.2605Z" fill="#ECEAEC"/>
<path d="M8.31797 27.0085H7.43975C7.30059 27.0085 7.18774 27.1213 7.18774 27.2605V28.1384C7.18774 28.2776 7.30059 28.3904 7.43975 28.3904H8.31797C8.45718 28.3904 8.56997 28.2776 8.56997 28.1384V27.2605C8.56997 27.1213 8.45718 27.0085 8.31797 27.0085Z" fill="#ECEAEC"/>
<path d="M21.146 27.0085H13.8541C13.7149 27.0085 13.6021 27.1213 13.6021 27.2605V28.1384C13.6021 28.2776 13.7149 28.3904 13.8541 28.3904H21.146C21.2852 28.3904 21.398 28.2776 21.398 28.1384V27.2605C21.398 27.1213 21.2852 27.0085 21.146 27.0085Z" fill="#ECEAEC"/>
<path d="M23.284 27.0085H22.4061C22.2669 27.0085 22.1541 27.1213 22.1541 27.2605V28.1384C22.1541 28.2776 22.2669 28.3904 22.4061 28.3904H23.284C23.4231 28.3904 23.536 28.2776 23.536 28.1384V27.2605C23.536 27.1213 23.4231 27.0085 23.284 27.0085Z" fill="#ECEAEC"/>
<path d="M12.5939 27.0085H11.7161C11.5769 27.0085 11.4641 27.1213 11.4641 27.2605V28.1384C11.4641 28.2776 11.5769 28.3904 11.7161 28.3904H12.5939C12.7331 28.3904 12.8459 28.2776 12.8459 28.1384V27.2605C12.8459 27.1213 12.7332 27.0085 12.5939 27.0085Z" fill="#ECEAEC"/>
<path d="M12.5939 20.5945H11.7161C11.5769 20.5945 11.4641 20.7073 11.4641 20.8465V21.7244C11.4641 21.8636 11.5769 21.9764 11.7161 21.9764H12.5939C12.7331 21.9764 12.8459 21.8636 12.8459 21.7244V20.8465C12.8459 20.7073 12.7332 20.5945 12.5939 20.5945Z" fill="#ECEAEC"/>
<path d="M14.7319 20.5945H13.854C13.7148 20.5945 13.602 20.7073 13.602 20.8465V21.7244C13.602 21.8636 13.7148 21.9764 13.854 21.9764H14.7319C14.8711 21.9764 14.9839 21.8636 14.9839 21.7244V20.8465C14.984 20.7073 14.8711 20.5945 14.7319 20.5945Z" fill="#ECEAEC"/>
<path d="M11.7161 24.1144H12.5939C12.7331 24.1144 12.8459 24.0015 12.8459 23.8624V22.9844C12.8459 22.8453 12.7331 22.7324 12.5939 22.7324H11.7161C11.5769 22.7324 11.4641 22.8453 11.4641 22.9844V23.8624C11.4641 24.0015 11.5769 24.1144 11.7161 24.1144V24.1144Z" fill="#ECEAEC"/>
<path d="M10.708 28.1384V27.2605C10.708 27.1213 10.5952 27.0085 10.456 27.0085H9.57808C9.43887 27.0085 9.32608 27.1213 9.32608 27.2605V28.1384C9.32608 28.2776 9.43892 28.3904 9.57808 28.3904H10.456C10.5952 28.3904 10.708 28.2776 10.708 28.1384Z" fill="#ECEAEC"/>
<path d="M7.43975 24.1144H10.456C10.5952 24.1144 10.708 24.0015 10.708 23.8624V22.9844C10.708 22.8453 10.5952 22.7324 10.456 22.7324H7.43975C7.30059 22.7324 7.18774 22.8453 7.18774 22.9844V23.8624C7.1877 24.0015 7.30054 24.1144 7.43975 24.1144Z" fill="#ECEAEC"/>
<path d="M12.5939 24.8705H7.43975C7.30059 24.8705 7.18774 24.9833 7.18774 25.1225V26.0004C7.18774 26.1396 7.30059 26.2524 7.43975 26.2524H12.594C12.7332 26.2524 12.846 26.1396 12.846 26.0004V25.1225C12.8459 24.9833 12.7332 24.8705 12.5939 24.8705V24.8705Z" fill="#ECEAEC"/>
<defs>
<linearGradient id="paint0_linear" x1="18" y1="-6" x2="23.6239" y2="40.3171" gradientUnits="userSpaceOnUse">
<stop stop-color="#5B6374"/>
<stop offset="0.484375" stop-color="#434956"/>
<stop offset="1" stop-color="#282C34"/>
</linearGradient>
</defs>
</svg>
